<mxfile host="app.diagrams.net" modified="2024-04-05T19:15:26.637Z" agent="Mozilla/5.0 (X11; Linux x86_64; rv:109.0) Gecko/20100101 Firefox/115.0" etag="ssEQe2_EU6RLVo7Xyf5C" version="24.2.0" type="device">
  <diagram name="Página-1" id="z9HnrFSc7xfMUlxDtUYV">
    <mxGraphModel dx="1434" dy="728" grid="1" gridSize="10" guides="1" tooltips="1" connect="1" arrows="1" fold="1" page="1" pageScale="1" pageWidth="1169" pageHeight="827" math="0" shadow="0">
      <root>
        <mxCell id="0" />
        <mxCell id="1" parent="0" />
        <mxCell id="ALYUk1nCFPAaFpfhy-I6-16" value="&lt;b&gt;&amp;nbsp;&amp;nbsp;&amp;nbsp;&amp;nbsp;&amp;nbsp;&amp;nbsp;&amp;nbsp;&amp;nbsp;&amp;nbsp; Host Docker&lt;br&gt;&lt;/b&gt;" style="rounded=0;whiteSpace=wrap;html=1;fillColor=#eeeeee;strokeColor=#36393d;align=left;" vertex="1" parent="1">
          <mxGeometry x="140" y="520" width="330" height="110" as="geometry" />
        </mxCell>
        <mxCell id="ALYUk1nCFPAaFpfhy-I6-4" value="" style="edgeStyle=orthogonalEdgeStyle;rounded=0;orthogonalLoop=1;jettySize=auto;html=1;" edge="1" parent="1" source="ALYUk1nCFPAaFpfhy-I6-1" target="ALYUk1nCFPAaFpfhy-I6-3">
          <mxGeometry relative="1" as="geometry" />
        </mxCell>
        <mxCell id="ALYUk1nCFPAaFpfhy-I6-1" value="" style="verticalLabelPosition=bottom;html=1;verticalAlign=top;align=center;strokeColor=#23445d;fillColor=#bac8d3;shape=mxgraph.azure.user;" vertex="1" parent="1">
          <mxGeometry x="190" y="90" width="47.5" height="50" as="geometry" />
        </mxCell>
        <mxCell id="ALYUk1nCFPAaFpfhy-I6-3" value="&lt;div&gt;&lt;b&gt;Podman&lt;/b&gt;&lt;/div&gt;&lt;div&gt;&lt;b&gt;(engine)&lt;br&gt;&lt;/b&gt;&lt;/div&gt;" style="rounded=0;whiteSpace=wrap;html=1;fillColor=#b0e3e6;strokeColor=#0e8088;" vertex="1" parent="1">
          <mxGeometry x="153.75" y="190" width="120" height="60" as="geometry" />
        </mxCell>
        <mxCell id="ALYUk1nCFPAaFpfhy-I6-13" value="" style="edgeStyle=orthogonalEdgeStyle;rounded=0;orthogonalLoop=1;jettySize=auto;html=1;" edge="1" parent="1" target="ALYUk1nCFPAaFpfhy-I6-12">
          <mxGeometry relative="1" as="geometry">
            <mxPoint x="210" y="251" as="sourcePoint" />
          </mxGeometry>
        </mxCell>
        <mxCell id="ALYUk1nCFPAaFpfhy-I6-15" value="" style="edgeStyle=orthogonalEdgeStyle;rounded=0;orthogonalLoop=1;jettySize=auto;html=1;" edge="1" parent="1" source="ALYUk1nCFPAaFpfhy-I6-12" target="ALYUk1nCFPAaFpfhy-I6-14">
          <mxGeometry relative="1" as="geometry" />
        </mxCell>
        <mxCell id="ALYUk1nCFPAaFpfhy-I6-19" value="" style="edgeStyle=orthogonalEdgeStyle;rounded=0;orthogonalLoop=1;jettySize=auto;html=1;entryX=0.5;entryY=0;entryDx=0;entryDy=0;" edge="1" parent="1" source="ALYUk1nCFPAaFpfhy-I6-12" target="ALYUk1nCFPAaFpfhy-I6-17">
          <mxGeometry relative="1" as="geometry">
            <mxPoint x="795" y="340" as="targetPoint" />
            <Array as="points">
              <mxPoint x="400" y="340" />
            </Array>
          </mxGeometry>
        </mxCell>
        <mxCell id="ALYUk1nCFPAaFpfhy-I6-12" value="&lt;b&gt;OCI runtime&lt;br&gt;&lt;/b&gt;" style="rounded=0;whiteSpace=wrap;html=1;fillColor=#fad7ac;strokeColor=#b46504;" vertex="1" parent="1">
          <mxGeometry x="150" y="310" width="120" height="60" as="geometry" />
        </mxCell>
        <mxCell id="ALYUk1nCFPAaFpfhy-I6-14" value="&lt;b&gt;Contenedor&lt;/b&gt;" style="rounded=0;whiteSpace=wrap;html=1;fillColor=#bac8d3;strokeColor=#23445d;" vertex="1" parent="1">
          <mxGeometry x="150" y="430" width="120" height="60" as="geometry" />
        </mxCell>
        <mxCell id="ALYUk1nCFPAaFpfhy-I6-17" value="&lt;b&gt;Núcleo Linux&lt;br&gt;&lt;/b&gt;" style="rounded=0;whiteSpace=wrap;html=1;" vertex="1" parent="1">
          <mxGeometry x="340" y="545" width="120" height="60" as="geometry" />
        </mxCell>
        <mxCell id="ALYUk1nCFPAaFpfhy-I6-25" value="&lt;font style=&quot;font-size: 14px;&quot;&gt;El OCI runtime configura el núcleo para que funcione el contenedor&lt;br&gt;&lt;/font&gt;" style="text;strokeColor=none;align=center;fillColor=none;html=1;verticalAlign=middle;whiteSpace=wrap;rounded=0;fontStyle=1" vertex="1" parent="1">
          <mxGeometry x="400" y="360" width="220" height="30" as="geometry" />
        </mxCell>
        <mxCell id="ALYUk1nCFPAaFpfhy-I6-28" value="&lt;div style=&quot;font-size: 13px;&quot;&gt;Ejecuta&lt;/div&gt;&lt;div style=&quot;font-size: 13px;&quot;&gt;(Fork/Exec)&lt;/div&gt;" style="text;strokeColor=none;align=center;fillColor=none;html=1;verticalAlign=middle;whiteSpace=wrap;rounded=0;fontSize=13;" vertex="1" parent="1">
          <mxGeometry x="140" y="260" width="60" height="30" as="geometry" />
        </mxCell>
        <mxCell id="ALYUk1nCFPAaFpfhy-I6-29" value="&lt;div style=&quot;font-size: 13px;&quot;&gt;Ejecuta&lt;/div&gt;&lt;div style=&quot;font-size: 13px;&quot;&gt;(Fork/Exec)&lt;/div&gt;" style="text;strokeColor=none;align=center;fillColor=none;html=1;verticalAlign=middle;whiteSpace=wrap;rounded=0;fontSize=13;" vertex="1" parent="1">
          <mxGeometry x="140" y="380" width="60" height="30" as="geometry" />
        </mxCell>
      </root>
    </mxGraphModel>
  </diagram>
</mxfile>
